<?xml version="1.0" encoding="UTF-8" standalone="no"?>
<svg
   xmlns:dc="http://purl.org/dc/elements/1.1/"
   xmlns:cc="http://creativecommons.org/ns#"
   xmlns:rdf="http://www.w3.org/1999/02/22-rdf-syntax-ns#"
   xmlns:svg="http://www.w3.org/2000/svg"
   xmlns="http://www.w3.org/2000/svg"
   xmlns:sodipodi="http://sodipodi.sourceforge.net/DTD/sodipodi-0.dtd"
   xmlns:inkscape="http://www.inkscape.org/namespaces/inkscape"
   height="72"
   viewBox="0 0 72 72"
   width="72"
   version="1.1"
   id="svg100"
   sodipodi:docname="linkedin.svg"
   inkscape:version="1.0.2 (e86c870879, 2021-01-15)">
  <metadata
     id="metadata106">
    <rdf:RDF>
      <cc:Work
         rdf:about="">
        <dc:format>image/svg+xml</dc:format>
        <dc:type
           rdf:resource="http://purl.org/dc/dcmitype/StillImage" />
        <dc:title></dc:title>
      </cc:Work>
    </rdf:RDF>
  </metadata>
  <defs
     id="defs104" />
  <sodipodi:namedview
     pagecolor="#000000"
     bordercolor="#666666"
     borderopacity="1"
     objecttolerance="10"
     gridtolerance="10"
     guidetolerance="10"
     inkscape:pageopacity="1"
     inkscape:pageshadow="2"
     inkscape:window-width="1918"
     inkscape:window-height="1054"
     id="namedview102"
     showgrid="false"
     inkscape:pagecheckerboard="true"
     showborder="false"
     inkscape:zoom="5.9236111"
     inkscape:cx="44.617061"
     inkscape:cy="33.235085"
     inkscape:window-x="2560"
     inkscape:window-y="204"
     inkscape:window-maximized="0"
     inkscape:current-layer="g98" />
  <g
     fill="none"
     fill-rule="evenodd"
     id="g98">
    <path
       d="M62,62 L51.315625,62 L51.315625,43.8021149 C51.315625,38.8127542 49.4197917,36.0245323 45.4707031,36.0245323 C41.1746094,36.0245323 38.9300781,38.9261103 38.9300781,43.8021149 L38.9300781,62 L28.6333333,62 L28.6333333,27.3333333 L38.9300781,27.3333333 L38.9300781,32.0029283 C38.9300781,32.0029283 42.0260417,26.2742151 49.3825521,26.2742151 C56.7356771,26.2742151 62,30.7644705 62,40.051212 L62,62 Z M16.349349,22.7940133 C12.8420573,22.7940133 10,19.9296567 10,16.3970067 C10,12.8643566 12.8420573,10 16.349349,10 C19.8566406,10 22.6970052,12.8643566 22.6970052,16.3970067 C22.6970052,19.9296567 19.8566406,22.7940133 16.349349,22.7940133 Z M11.0325521,62 L21.769401,62 L21.769401,27.3333333 L11.0325521,27.3333333 L11.0325521,62 Z"
       fill="#FFF"
       id="path96" />
  </g>
</svg>
