<?xml version="1.0" standalone="no"?>
<!DOCTYPE svg PUBLIC "-//W3C//DTD SVG 20010904//EN"
 "http://www.w3.org/TR/2001/REC-SVG-20010904/DTD/svg10.dtd">
<svg version="1.0" xmlns="http://www.w3.org/2000/svg"
 width="1040.000000pt" height="1040.000000pt" viewBox="0 0 1040.000000 1040.000000"
 preserveAspectRatio="xMidYMid meet">
<metadata>
Created by potrace 1.11, written by Peter Selinger 2001-2013
</metadata>
<g transform="translate(0.000000,1040.000000) scale(0.100000,-0.100000)"
fill="#000000" stroke="none">
<path d="M2640 10385 c-30 -7 -70 -16 -87 -20 -18 -4 -33 -11 -33 -15 0 -3 -6
-7 -13 -7 -22 0 -131 -70 -186 -119 -86 -77 -152 -181 -193 -301 l-23 -68 -3
-4620 c-1 -3257 1 -4636 9 -4675 12 -64 17 -85 19 -85 1 0 3 -7 5 -15 7 -35
57 -131 95 -181 22 -29 40 -58 40 -63 0 -5 3 -7 6 -3 3 3 17 -7 31 -23 28 -34
142 -111 193 -130 19 -7 40 -17 45 -21 6 -4 24 -10 40 -13 17 -3 46 -10 65
-16 23 -7 871 -9 2570 -8 2438 3 2537 4 2590 22 64 21 164 68 168 79 2 4 10 7
17 7 16 0 152 131 186 180 37 51 76 141 99 223 20 71 20 105 18 4712 l-3 4640
-23 60 c-54 139 -88 193 -173 275 -79 77 -95 90 -108 90 -5 0 -11 4 -13 8 -6
15 -116 62 -189 82 -72 18 -139 19 -2584 19 -2012 -1 -2521 -3 -2565 -14z"/>
</g>
</svg>
