<?xml version="1.0" encoding="UTF-8" standalone="no"?>
<svg
   xmlns:dc="http://purl.org/dc/elements/1.1/"
   xmlns:cc="http://creativecommons.org/ns#"
   xmlns:rdf="http://www.w3.org/1999/02/22-rdf-syntax-ns#"
   xmlns:svg="http://www.w3.org/2000/svg"
   xmlns="http://www.w3.org/2000/svg"
   xmlns:sodipodi="http://sodipodi.sourceforge.net/DTD/sodipodi-0.dtd"
   xmlns:inkscape="http://www.inkscape.org/namespaces/inkscape"
   width="265.47385mm"
   height="204.58894mm"
   viewBox="0 0 265.47384 204.58894"
   version="1.1"
   id="svg8"
   inkscape:version="1.0.2 (e86c870879, 2021-01-15)"
   sodipodi:docname="email.svg">
  <defs
     id="defs2">
    <clipPath
       clipPathUnits="userSpaceOnUse"
       id="clipPath1136">
      <rect
         style="opacity:0.592562;fill:#ffffff;stroke-width:0.296747"
         id="rect1138"
         width="257.3067"
         height="321.77783"
         x="36.463654"
         y="26.749088"
         ry="14.295433"
         transform="matrix(-0.57639989,0.81716777,-0.73714357,-0.67573616,0,0)" />
    </clipPath>
    <clipPath
       clipPathUnits="userSpaceOnUse"
       id="clipPath1140">
      <rect
         style="opacity:0.592562;fill:#ffffff;stroke-width:0.280741"
         id="rect1142"
         width="266.3132"
         height="278.26312"
         x="37.73999"
         y="23.13175"
         ry="12.362229"
         transform="matrix(0.70176038,0.71241306,-0.70907691,0.70513114,0,0)" />
    </clipPath>
    <clipPath
       clipPathUnits="userSpaceOnUse"
       id="clipPath1144">
      <rect
         style="opacity:0.592562;fill:#ffffff;stroke-width:0.273608"
         id="rect1146"
         width="276.63614"
         height="254.43881"
         x="39.202885"
         y="21.151258"
         ry="11.303802"
         transform="matrix(0.73609641,0.6768767,-0.6928203,0.72111028,0,0)" />
    </clipPath>
    <clipPath
       clipPathUnits="userSpaceOnUse"
       id="clipPath1148">
      <rect
         style="opacity:0.592562;fill:#ffffff;stroke-width:0.272349"
         id="rect1150"
         width="279.26071"
         height="249.73387"
         x="39.574818"
         y="20.760143"
         ry="11.094778"
         transform="matrix(0.74713872,-0.66466814,0.68597471,0.72762538,0,0)" />
    </clipPath>
    <clipPath
       clipPathUnits="userSpaceOnUse"
       id="clipPath1152">
      <rect
         style="opacity:0.592562;fill:#ffffff;stroke-width:0.264583"
         id="rect1154"
         width="321.71954"
         height="204.58894"
         x="46.938435"
         y="45.038822"
         ry="9.0891514" />
    </clipPath>
  </defs>
  <sodipodi:namedview
     id="base"
     pagecolor="#000000"
     bordercolor="#666666"
     borderopacity="1.0"
     inkscape:pageopacity="1"
     inkscape:pageshadow="2"
     inkscape:zoom="0.35"
     inkscape:cx="757.02321"
     inkscape:cy="385.36493"
     inkscape:document-units="mm"
     inkscape:current-layer="layer1"
     inkscape:document-rotation="0"
     showgrid="false"
     inkscape:pagecheckerboard="true"
     inkscape:showpageshadow="false"
     inkscape:object-paths="true"
     inkscape:snap-object-midpoints="false"
     inkscape:snap-smooth-nodes="true"
     inkscape:snap-page="true"
     fit-margin-top="0"
     fit-margin-left="0"
     fit-margin-right="0"
     fit-margin-bottom="0"
     inkscape:window-width="1247"
     inkscape:window-height="1054"
     inkscape:window-x="3231"
     inkscape:window-y="204"
     inkscape:window-maximized="0" />
  <metadata
     id="metadata5">
    <rdf:RDF>
      <cc:Work
         rdf:about="">
        <dc:format>image/svg+xml</dc:format>
        <dc:type
           rdf:resource="http://purl.org/dc/dcmitype/StillImage" />
        <dc:title></dc:title>
      </cc:Work>
    </rdf:RDF>
  </metadata>
  <g
     inkscape:label="Layer 1"
     inkscape:groupmode="layer"
     id="layer1"
     transform="translate(-41.7051,-46.205528)">
    <g
       id="g1253"
       transform="matrix(0.94600413,0,0,1,1.8272249,0)">
      <path
         style="fill:#ffffff;stroke-width:0.340529"
         id="rect922"
         width="209.06448"
         height="19.408951"
         x="43.808811"
         y="-11.198511"
         transform="matrix(0.72820388,0.54474202,-0.68652009,0.61233243,3.8247159,29.198241)"
         ry="9.7044754"
         sodipodi:type="rect"
         clip-path="url(#clipPath1148)"
         d="M 53.513287,-11.198511 H 243.16882 c 5.37628,0 9.70447,4.3281959 9.70447,9.7044753 0,5.3762794 -4.32819,9.7044754 -9.70447,9.7044754 H 53.513287 c -5.37628,0 -9.704476,-4.328196 -9.704476,-9.7044754 0,-5.3762794 4.328196,-9.7044753 9.704476,-9.7044753 z" />
      <path
         style="fill:#ffffff;stroke-width:0.34374"
         id="rect922-6"
         width="209.59096"
         height="19.726973"
         x="8.2429953"
         y="229.03647"
         transform="matrix(0.72840078,-0.54439279,0.69982478,0.59202153,3.8247159,29.198241)"
         ry="9.8634863"
         sodipodi:type="rect"
         clip-path="url(#clipPath1144)"
         d="M 18.106482,229.03647 H 207.97047 c 5.46437,0 9.86348,4.39911 9.86348,9.86348 0,5.46438 -4.39911,9.86349 -9.86348,9.86349 H 18.106482 c -5.464372,0 -9.8634867,-4.39911 -9.8634867,-9.86349 0,-5.46437 4.3991147,-9.86348 9.8634867,-9.86348 z" />
      <rect
         style="fill:#ffffff;stroke-width:0.313098"
         id="rect922-7"
         width="188.83736"
         height="18.165657"
         x="-187.22112"
         y="221.23715"
         transform="matrix(0.7397002,-0.52379735,0.74383941,0.51596503,3.8247159,29.198241)"
         ry="9.0828285"
         clip-path="url(#clipPath1140)" />
      <rect
         style="fill:#ffffff;stroke-width:0.332113"
         id="rect922-7-5"
         width="188.84096"
         height="20.438702"
         x="-426.24359"
         y="4.5474186"
         transform="matrix(-0.73968619,-0.52382359,0.80690505,-0.36948577,3.8247159,29.198241)"
         ry="10.219351"
         clip-path="url(#clipPath1136)" />
      <rect
         style="fill:#ffffff;stroke-width:0.246553"
         id="rect1174"
         width="14.587373"
         height="204.58894"
         x="42.154018"
         y="46.205528"
         ry="8.3994503" />
      <rect
         style="fill:#ffffff;stroke-width:0.246553"
         id="rect1176"
         width="280.6265"
         height="16.737396"
         x="42.154018"
         y="46.205528"
         ry="8.3686981" />
      <rect
         style="fill:#ffffff;stroke-width:0.201281"
         id="rect1074"
         width="280.62653"
         height="18.178293"
         x="42.154018"
         y="232.61618"
         ry="9.0891466" />
      <rect
         style="fill:#ffffff;stroke-width:0.246553"
         id="rect1174-2"
         width="14.587373"
         height="204.58894"
         x="308.19318"
         y="46.205528"
         ry="8.3994503" />
    </g>
  </g>
</svg>
